<?xml version="1.0" encoding="UTF-8"?>
<svg id="_レイヤー_1" data-name="レイヤー_1" xmlns="http://www.w3.org/2000/svg" version="1.1" viewBox="0 0 16 16">
  <!-- Generator: Adobe Illustrator 29.8.5, SVG Export Plug-In . SVG Version: 2.1.1 Build 2)  -->
  <defs>
    <style>
      .st0 {
        fill: #fff;
      }
    </style>
  </defs>
  <path class="st0" d="M4.59.68c-.14,0-.22-.04-.31.1-.09.12-.27,1.1-.4,1.42-.33.81-.74,1.25-1.49,1.59-.24.11-1.36.38-1.41.51-.02.04-.04.26.05.24,1.05.2,2.14.6,2.67,1.67.31.63.33,1.41.7,1.95.11,0,.38-1.24.46-1.45.35-.94.87-1.45,1.74-1.81.27-.11,1.27-.28,1.28-.55,0-.1-1.47-.51-1.73-.66-1.01-.57-1.43-1.85-1.56-3.01ZM10.66,4.27c-.1.04-.53,1.86-.67,2.2-.93,2.26-2.1,1.98-3.84,2.73-.93.4.94.74,1.13.81,1.3.49,2.1,1.04,2.67,2.45.26.64.3,1.39.51,1.96.13.34.32.35.47.03.17-.38.26-1.19.44-1.67.44-1.22,1.13-2.02,2.26-2.51.52-.22,1.23-.3,1.67-.52.88-.43-.93-.74-1.14-.82-1.34-.52-2.11-1.09-2.67-2.55-.15-.4-.44-1.86-.55-2.01-.07-.1-.16-.14-.27-.1ZM3.65,10.18c-.33,0-.31.55-.44.84-.35.81-.92,1.11-1.73,1.19-.04.25.02.15.13.2.31.15.66.18.98.4.56.39.73,1.07.86,1.74.14-.01.14-.15.18-.25.28-.78.28-1.26,1.09-1.64.18-.08,1.16-.25.68-.44-1.06-.42-1.66-.62-1.74-2.04Z"/>
</svg>